<?xml version="1.0" encoding="UTF-8" standalone="no"?>
<!-- Created with Inkscape (http://www.inkscape.org/) -->

<svg
   width="266.81534mm"
   height="100.00001mm"
   viewBox="0 0 266.81534 100.00001"
   version="1.1"
   id="svg1"
   xml:space="preserve"
   xmlns:inkscape="http://www.inkscape.org/namespaces/inkscape"
   xmlns:sodipodi="http://sodipodi.sourceforge.net/DTD/sodipodi-0.dtd"
   xmlns="http://www.w3.org/2000/svg"
   xmlns:svg="http://www.w3.org/2000/svg"><sodipodi:namedview
     id="namedview1"
     pagecolor="#505050"
     bordercolor="#eeeeee"
     borderopacity="1"
     inkscape:showpageshadow="0"
     inkscape:pageopacity="0"
     inkscape:pagecheckerboard="0"
     inkscape:deskcolor="#505050"
     inkscape:document-units="mm"
     inkscape:zoom="0.52052366"
     inkscape:cx="-2.8817134"
     inkscape:cy="362.13532"
     inkscape:window-width="1512"
     inkscape:window-height="916"
     inkscape:window-x="0"
     inkscape:window-y="38"
     inkscape:window-maximized="1"
     inkscape:current-layer="layer1" /><defs
     id="defs1" /><g
     inkscape:label="Layer 1"
     inkscape:groupmode="layer"
     id="layer1"
     transform="translate(67.996881,-71.394667)"><path
       d="m 131.96288,170.9201 c -2.68745,-0.737 -3.95611,-1.58536 -7.82908,-5.2353 -2.42055,-2.28115 -4.07013,-3.51766 -5.71801,-4.28617 -1.27381,-0.59406 -3.3318,-1.55328 -4.5733,-2.1316 -2.7899,-1.2996 -5.54408,-3.70175 -6.51201,-5.67968 -1.49418,-3.05329 -0.77307,-8.22127 1.42623,-10.22133 2.60901,-2.37264 7.33769,-2.47624 10.40081,-0.22787 1.57116,1.15325 3.18385,4.61272 3.62774,7.7821 0.78676,5.61732 1.34644,6.26551 5.40981,6.26551 1.924,0 2.44214,-0.13688 3.33681,-0.88159 2.00974,-1.67286 2.29671,-4.82963 0.71743,-7.8919 -1.14987,-2.22963 -2.07444,-5.1208 -2.07444,-6.48682 0,-1.57507 1.19156,-4.01238 2.31878,-4.74301 0.4822,-0.31253 1.93911,-0.81574 3.23759,-1.11823 2.90001,-0.67559 3.74318,-1.47013 3.41218,-3.21546 -0.47776,-2.51928 -1.92767,-4.01217 -5.09791,-5.24904 -3.47086,-1.35416 -5.27449,-3.29966 -5.27684,-5.69191 -0.002,-2.35446 0.79998,-3.39958 4.39099,-5.7201 1.82614,-1.18004 3.57905,-2.53622 3.89533,-3.01374 0.7479,-1.12913 0.39767,-3.36221 -0.72977,-4.6531 l -0.81847,-0.93714 -6.50906,0.11005 c -7.35587,0.12436 -7.99649,-0.0289 -9.54499,-2.28314 -1.06547,-1.55107 -1.18542,-4.20046 -0.34908,-7.710228 0.88726,-3.723416 -0.0556,-5.141102 -5.13665,-7.722891 -4.86302,-2.471043 -6.30921,-4.504969 -6.39332,-8.991605 -0.0735,-3.922443 1.79489,-6.664176 5.95214,-8.734245 1.42992,-0.71202 2.21591,-0.845619 5.03713,-0.856196 3.02418,-0.01135 3.54409,0.08703 5.4541,1.03172 3.04956,1.508352 4.1938,3.24771 4.18439,6.360678 -0.004,1.384097 -0.28136,3.124206 -0.6779,4.255897 -0.96887,2.765147 -0.9431,6.922788 0.0511,8.240245 l 0.74254,0.984003 6.12569,0.02466 c 5.77993,0.02329 6.23555,0.0744 8.07179,0.906005 2.25712,1.022216 4.02139,3.000099 4.47706,5.019136 0.16881,0.747985 0.23444,3.580241 0.14586,6.293891 -0.14747,4.51756 -0.0975,5.06379 0.59215,6.47304 0.92395,1.88808 1.86522,2.34238 4.85311,2.34238 3.30683,0 4.94663,-0.58716 6.83545,-2.44753 3.5753,-3.52145 4.12387,-7.99727 2.00377,-16.349046 -1.49473,-5.888247 -1.74709,-8.076888 -1.31962,-11.4446 0.37897,-2.985644 1.55574,-5.398186 3.46565,-7.105071 2.18139,-1.949515 3.57939,-2.404678 7.95241,-2.58916 4.96555,-0.209486 7.18138,0.500728 9.90427,3.174488 2.15663,2.117726 2.74392,3.818464 2.49926,7.237712 -0.14055,1.964355 -0.52987,3.08015 -2.50083,7.167481 -2.48437,5.152014 -3.04109,7.138767 -3.04109,10.852526 0,4.96411 -1.14835,8.20062 -3.69425,10.41186 -1.82448,1.58463 -4.06584,2.60902 -8.44551,3.85987 -6.67623,1.90676 -8.12444,3.12463 -8.04688,6.76703 0.0681,3.19941 1.32046,5.14437 4.03478,6.26626 0.69105,0.28562 5.26003,-0.81341 9.00627,3.38099 6.228,6.97306 3.46025,8.47137 8.21941,15.33959 14.02063,20.234 30.37247,23.81039 9.24063,23.33773 -18.92292,-0.42326 -8.5953,0.12398 -13.09502,-7.49877 -1.87353,-3.17386 -3.7606,-4.27038 -8.4795,-7.92788 -4.15613,-3.22132 -6.26699,-5.65876 -8.4049,-13.06239 -1.37427,-4.75912 -0.61192,-5.61876 -3.27108,-6.95174 -3.44178,-1.72528 -7.64537,-1.09024 -9.38235,1.41739 -1.16104,1.67616 -2.16576,5.12754 -2.16437,7.43486 6.5e-4,1.08376 0.39829,3.38022 0.88363,5.10323 2.26934,8.05641 2.37762,8.61014 2.17632,11.12921 -0.34769,4.35076 -2.49468,8.25524 -5.34835,9.72641 -1.82128,0.93894 -6.85625,1.12813 -9.64799,0.36253 z"
       style="fill:#000000;stroke-width:0.992057"
       id="path1-9"
       sodipodi:nodetypes="sssssssssssssssscssscsssccssccsscsssssssssssssssssssssssssssssssss"
       inkscape:export-filename="nox.svg"
       inkscape:export-xdpi="96"
       inkscape:export-ydpi="96" /><path
       d="m -64.461906,167.83239 3.534977,-3.56224 V 124.68223 85.09431 L -63.3403,82.537717 c -1.327397,-1.40611 -2.999939,-2.776095 -3.716805,-3.044408 -0.716898,-0.268218 -1.105806,-0.719488 -0.864284,-1.002614 0.241621,-0.283272 7.874444,-1.646348 16.962052,-3.029322 l 16.52297,-2.514507 1.403288,1.913513 1.403321,1.913519 6.559042,-2.405543 c 8.551809,-3.1364 20.6302009,-3.918522 26.8293264,-1.737356 5.6626662,1.992437 10.1594036,6.056544 12.6651596,11.44666 2.019373,4.343881 2.051997,4.898622 2.48351,42.260651 l 0.437266,37.85904 3.829285,3.59866 3.829286,3.59866 H 2.9754763 c -14.4623783,0 -21.8420103,-0.31828 -21.4871153,-0.92642 0.297152,-0.50952 1.072588,-0.92645 1.72295,-0.92645 0.650327,0 2.201299,-1.28265 3.446558,-2.85036 l 2.264068,-2.85037 v -31.92045 c 0,-35.501705 -0.107092,-34.740912 6.0499539,-42.992207 4.44451227,-5.956336 4.81729014,-9.993839 1.165039,-12.617725 -3.463614,-2.488317 -17.1991449,-2.443848 -23.6126179,0.07632 l -4.591368,1.804271 v 43.039341 43.03937 l 3.53501,3.56225 3.534974,3.56229 h -21.499904 -21.499907 z"
       style="fill:#000000;stroke-width:3.402"
       id="path1-5"
       sodipodi:nodetypes="ccccccsscccscsscccscsscsccccccccccc" /><g
       id="g4"
       transform="translate(-0.52917062)"><path
         d="m 61.846654,166.10688 c -5.512057,-0.51969 -10.487899,-1.9509 -15.697281,-4.51503 -5.000824,-2.46147 -7.984726,-4.60778 -12.031339,-8.65405 -6.455742,-6.45521 -10.041294,-13.02214 -12.080765,-22.12591 -0.627962,-2.80306 -0.733134,-4.15107 -0.734697,-9.41667 -0.0018,-6.84854 0.554381,-10.42927 2.409675,-15.50704 7.016696,-19.204115 26.566141,-31.33445 47.162916,-29.264344 5.840307,0.586985 10.415871,1.904752 15.663176,4.510994 12.821056,6.368011 21.147911,17.09822 24.150661,31.1212 0.81808,3.82047 0.81808,14.45789 0,18.27837 -4.22745,19.74233 -20.420408,33.93986 -40.607324,35.60335 -4.217556,0.34755 -4.221426,0.34753 -8.235022,-0.0309 z m 10.216133,-14.60102 c 2.730067,-0.47796 6.097247,-1.5715 8.392769,-2.72562 6.132037,-3.08307 11.647318,-9.02039 14.391071,-15.49229 3.254912,-7.6776 3.048622,-17.42962 -0.529722,-25.04291 C 90.083418,99.237913 82.288401,93.157565 72.346128,91.107201 66.938327,89.991959 60.206104,90.568742 55.035677,92.590252 46.118833,96.076524 39.66019,103.09408 36.77329,112.43302 c -0.816313,2.64072 -0.871791,3.19132 -0.887075,8.80461 -0.01472,5.39317 0.05774,6.23811 0.729695,8.50891 2.43205,8.21917 7.236549,14.28133 14.701511,18.5499 5.502609,3.14648 13.785592,4.42789 20.745366,3.20942 z"
         style="fill:#000000;stroke-width:0.895652"
         id="path1-7"
         sodipodi:nodetypes="sssscssssssssscsssssccss" /><path
         d="m 65.559912,128.8467 c -0.918676,-0.0866 -1.747983,-0.32515 -2.616213,-0.75251 -0.833471,-0.41024 -1.330788,-0.76796 -2.005224,-1.44234 -1.075957,-1.07587 -1.673549,-2.17036 -2.013461,-3.68765 -0.104661,-0.46718 -0.122189,-0.69185 -0.122449,-1.56944 -3e-4,-1.14143 0.0924,-1.73822 0.401612,-2.58452 1.16945,-3.20068 4.42769,-5.2224 7.860487,-4.87738 0.973384,0.0978 1.735979,0.31746 2.610529,0.75183 2.136844,1.06133 3.524652,2.8497 4.025111,5.18686 0.136347,0.63675 0.136347,2.40965 0,3.0464 -0.704576,3.29039 -3.403402,5.65665 -6.767888,5.93389 -0.702926,0.0579 -0.703571,0.0579 -1.372504,-0.005 z"
         style="fill:#000000;stroke-width:0.149275"
         id="path1-7-0"
         sodipodi:nodetypes="cssscsssssccc" /></g></g></svg>
